<svg id="Layer_1" enable-background="new 0 0 26 26" height="512" viewBox="0 0 26 26" width="512" xmlns="http://www.w3.org/2000/svg"><g id="_x32_"><path d="m20.6300049 1h-15.2600098c-2.4100342 0-4.3699951 1.960022-4.3699951 4.3699951v15.2600098c0 2.4099731 1.9599609 4.3699951 4.3699951 4.3699951h15.2600098c2.4099731 0 4.3699951-1.960022 4.3699951-4.3699951v-15.2600098c0-2.4099731-1.960022-4.3699951-4.3699951-4.3699951zm-3.5400391 17.1599731c.5499878 0 1 .4500122 1 1 0 .5500488-.4500122 1-1 1h-8.1799927c-.5499878 0-1-.4499512-1-1 0-.5499878.4500122-1 1-1h3.2600098c-.3845472-.27458-4.4700317-5.1124916-4.4700317-7.6299438 0-2.9300537 2.3800049-5.3000488 5.3000488-5.3000488 2.9199829 0 5.2999878 2.3699951 5.2999878 5.3000488 0 2.5820551-4.1588755 7.4149151-4.460022 7.6299438z"/><path d="m15.6300049 10.2600098c0-1.4400024-1.1800537-2.6199951-2.6300049-2.6199951-1.4500122 0-2.6300049 1.1799927-2.6300049 2.6199951 0 1.4599609 1.1799927 2.6400146 2.6300049 2.6400146 1.4499512 0 2.6300049-1.1800537 2.6300049-2.6400146z"/></g></svg>